{"title":"Teen Wolf S04E09 Perishable 1080P WEB-DL","uid":10829557,"size":1687112758,"categoryP":"video","categoryS":"hd___tv_shows","magnet":"?xt=urn:btih:b8fe89dc6239470f970bdd7cf9984fd19670d3e9&amp;dn=Teen+Wolf+S04E09+Perishable+1080P+WEB-DL&amp;tr=udp%3A%2F%2Ftracker.openbittorrent.com%3A80&amp;tr=udp%3A%2F%2Fopen.demonii.com%3A1337&amp;tr=udp%3A%2F%2Ftracker.coppersurfer.tk%3A6969&amp;tr=udp%3A%2F%2Fexodus.desync.com%3A6969","seeders":1,"leechers":0,"uploader":"jmanwf","files":2,"time":1408608497,"description":"Scott and Liam are targeted by an assassin during the lacrosse team's annual bonfire; Lydia discovers a family secret\n\n\n\nFormat : MPEG-4\nFormat profile : Base Media / Version 2\nCodec ID : mp42\nFile size : 1.57 GiB\nDuration : 41mn 56s\nOverall bit rate mode : Variable\nOverall bit rate : 5 364 Kbps\nMovie name : Perishable\nAlbum : Teen Wolf, Season 4\nPart/Position : 1\nPart/Total : 1\nTrack name/Position : 9\nTrack name/Total : 11\nVideo\nID : 3\nFormat : AVC\nFormat/Info : Advanced Video Codec\nFormat profile : &lt;a class=&quot;__cf_email__&quot; href=&quot;/cdn-cgi/l/email-protection&quot; data-cfemail=&quot;a3ebcac4cbe3ef978d93&quot;&gt;[email&amp;#160;protected]&lt;/a&gt;&lt;script cf-hash='f9e31' type=&quot;text/javascript&quot;&gt;\n/* &lt;![CDATA[ */!function(){try{var t=&quot;currentScript&quot;in document?document.currentScript:function(){for(var t=document.getElementsByTagName(&quot;script&quot;),e=t.length;e--;)if(t[e].getAttribute(&quot;cf-hash&quot;))return t[e]}();if(t&amp;&amp;t.previousSibling){var e,r,n,i,c=t.previousSibling,a=c.getAttribute(&quot;data-cfemail&quot;);if(a){for(e=&quot;&quot;,r=parseInt(a.substr(0,2),16),n=2;a.length-n;n+=2)i=parseInt(a.substr(n,2),16)^r,e+=String.fromCharCode(i);e=document.createTextNode(e),c.parentNode.replaceChild(e,c)}}}catch(u){}}();/* ]]&gt; */&lt;/script&gt;\nFormat settings, CABAC : Yes\nFormat settings, ReFrames : 4 frames\nCodec ID : avc1\nCodec ID/Info : Advanced Video Coding\nDuration : 41mn 55s\nBit rate : 4 850 Kbps\nWidth : 1 920 pixels\nHeight : 1 080 pixels\nDisplay aspect ratio : 16:9\nFrame rate : 23.976 fps\nColor space : YUV\nChroma subsampling : 4:2:0\nBit depth : 8 bits\nScan type : Progressive\nBits/(Pixel*Frame) : 0.098\nStream size : 1.42 GiB (90%)\nLanguage : English\nEncoded date : UTC 2014-08-19 09:35:15\nTagged date : UTC 2014-08-19 09:36:20\nColor primaries : BT.709\nTransfer characteristics : BT.709\nMatrix coefficients : BT.709\n\nAudio #1\nID : 1\nFormat : AAC\nFormat/Info : Advanced Audio Codec\nFormat profile : LC\nCodec ID : 40\nDuration : 41mn 55s\nBit rate mode : Variable\nBit rate : 127 Kbps\nMaximum bit rate : 206 Kbps\nChannel(s) : 2 channels\nChannel positions : Front: L R\nSampling rate : 48.0 KHz\nCompression mode : Lossy\nStream size : 38.0 MiB (2%)\nLanguage : English\nEncoded date : UTC 2014-08-19 09:31:38\nTagged date : UTC 2014-08-19 09:33:54\n\nAudio #2\nID : 2\nFormat : AC-3\nFormat/Info : Audio Coding 3\nMode extension : CM (complete main)\nFormat settings, Endianness : Big\nCodec ID : ac-3\nDuration : 41mn 56s\nBit rate mode : Constant\nBit rate : 384 Kbps\nChannel(s) : 6 channels\nChannel positions : Front: L C R, Side: L R, LFE\nSampling rate : 48.0 KHz\nBit depth : 16 bits\nCompression mode : Lossy\nStream size : 115 MiB (7%)\nLanguage : English\nEncoded date : UTC 2014-08-19 09:33:55\nTagged date : UTC 2014-08-19 09:35:14","torrent":{"xt":"urn:btih:b8fe89dc6239470f970bdd7cf9984fd19670d3e9","amp;dn":"Teen+Wolf+S04E09+Perishable+1080P+WEB-DL","amp;tr":["udp%3A%2F%2Ftracker.openbittorrent.com%3A80","udp%3A%2F%2Fopen.demonii.com%3A1337","udp%3A%2F%2Ftracker.coppersurfer.tk%3A6969","udp%3A%2F%2Fexodus.desync.com%3A6969"],"infoHash":"b8fe89dc6239470f970bdd7cf9984fd19670d3e9","infoHashBuffer":{"type":"Buffer","data":[184,254,137,220,98,57,71,15,151,11,221,124,249,152,79,209,150,112,211,233]},"announce":[],"urlList":[]}}